<svg id="Grupo_26" data-name="Grupo 26" xmlns="http://www.w3.org/2000/svg" xmlns:xlink="http://www.w3.org/1999/xlink" width="55.985" height="65.358" viewBox="0 0 55.985 65.358">
  <defs>
    <clipPath id="clip-path">
      <rect id="Rectángulo_39" data-name="Rectángulo 39" width="55.985" height="65.358" fill="#9aa1f7"/>
    </clipPath>
  </defs>
  <g id="Grupo_26-2" data-name="Grupo 26" clip-path="url(#clip-path)">
    <path id="Trazado_637" data-name="Trazado 637" d="M27.972,0A.905.905,0,0,0,27.1.737c-.77,4.073-2.309,7.414-4.041,8.286a3.077,3.077,0,0,1-3.182-.332,17.9,17.9,0,0,1-5.053-5.185.9.9,0,0,0-1.61.75c1.123,4.265,1.229,7.137.793,8.841S12.8,15.35,11.633,15.51A8.179,8.179,0,0,1,7.16,14.373a19.2,19.2,0,0,1-4.627-3.457.9.9,0,0,0-1.524.858c.939,3.577,1.192,5.815,1,7.3A5.052,5.052,0,0,1,.319,22.343.9.9,0,1,0,1.609,23.6,7.174,7.174,0,0,0,3.8,19.3a18.54,18.54,0,0,0-.5-5.463,16.067,16.067,0,0,0,3.031,2.136,9.534,9.534,0,0,0,5.548,1.318,4.705,4.705,0,0,0,3.875-3.75,12.868,12.868,0,0,0,.061-5.95,10.173,10.173,0,0,0,3.168,2.67,5.084,5.084,0,0,0,4.889.38c2.1-1.061,3.256-3.041,4.12-5.987.864,2.947,2.018,4.927,4.12,5.987A5.076,5.076,0,0,0,37,10.263a10.3,10.3,0,0,0,3.178-2.675,12.783,12.783,0,0,0,.057,5.954,4.709,4.709,0,0,0,3.872,3.75,9.528,9.528,0,0,0,5.546-1.318,14.577,14.577,0,0,0,2.966-1.888,16.571,16.571,0,0,0-.436,5.215,7.154,7.154,0,0,0,2.2,4.3.9.9,0,1,0,1.292-1.257,5.062,5.062,0,0,1-1.7-3.267c-.188-1.488.065-3.726,1-7.3a.9.9,0,0,0-1.515-.858,19.2,19.2,0,0,1-4.636,3.457,8.147,8.147,0,0,1-4.462,1.138c-1.165-.161-1.939-.714-2.376-2.413s-.332-4.576.785-8.841a.9.9,0,0,0-1.61-.75A17.839,17.839,0,0,1,36.1,8.691a3.06,3.06,0,0,1-3.172.332C31.195,8.151,29.646,4.81,28.877.737A.9.9,0,0,0,27.972,0" transform="translate(0 -0.001)" fill="#9aa1f7"/>
    <path id="Trazado_638" data-name="Trazado 638" d="M41.132,125.289c1.14.5,2.27,1.69,3.97,2.046,2.121.446,4.077-.249,5.747-.352a4.327,4.327,0,0,1,3.868,1.446,7.919,7.919,0,0,1,1.507,5.491c-.1,2.74,1.3,4.372,2.791,5.95,1.309,1.379,1.638,1.826,1.83,4.577.244,3.528.38,7.065.74,10.586.278,2.713-.127,5.114-1.656,6.8-1.763,1.957-3.467,3.965-5.316,5.843-1.576,1.6-3.848,1.07-5.654.788q-5.1-.81-10.2-1.62a3.659,3.659,0,0,1-2.332-1.173,3.306,3.306,0,0,1-.732-2.145,5.957,5.957,0,0,1,.549-2.421,10.514,10.514,0,0,0,2.553.3,8.362,8.362,0,0,0,4.763-1.267,4.792,4.792,0,0,0,1.287-1.3,5.5,5.5,0,0,0,.938,1.061,7.65,7.65,0,0,0,9.132,0,5.873,5.873,0,0,0,1.957-4.589V142.107a.906.906,0,1,0-1.811,0l.006,13.192a3.938,3.938,0,0,1-1.324,3.21,5.875,5.875,0,0,1-6.785,0,3.936,3.936,0,0,1-1.324-3.21V138.372a.9.9,0,1,0-1.807,0V155.3a4.1,4.1,0,0,1-1.309,3.351,6.616,6.616,0,0,1-3.723.938,6.035,6.035,0,0,1-3.725-.938,3.192,3.192,0,0,1-1.332-2.689V138.977a.906.906,0,1,0-1.812,0v16.984a2.967,2.967,0,0,1-1.347,2.688,6.6,6.6,0,0,1-3.7.938,6.6,6.6,0,0,1-3.692-.938,2.971,2.971,0,0,1-1.351-2.688V141.822a.9.9,0,1,0-1.807,0v14.139a5.537,5.537,0,0,0,.042.69H16.138a3.152,3.152,0,0,1-2.632-1.445,7.222,7.222,0,0,1-1.164-4.224V139.649c0-2.7.83-5.359,3.338-5.767,1.337-.221,3.247.173,4.988-.842,1.966-1.144,2.675-3.265,3.675-4.532a4.018,4.018,0,0,1,3.351-1.112c1.333.174,3.013,1.024,4.927.6,2-.441,3.177-2.05,4.416-2.754a4.454,4.454,0,0,1,4.1.052Zm-5.069-1.576c-1.552.98-2.647,2.252-3.833,2.515-1.113.249-2.558-.4-4.3-.624a5.49,5.49,0,0,0-5.006,1.778c-1.277,1.61-1.962,3.4-3.168,4.1-.981.572-2.595.244-4.35.614-3.937.826-4.872,4.28-4.872,7.55v11.334a8.952,8.952,0,0,0,1.517,5.284,5.047,5.047,0,0,0,4.088,2.193h4.513a4.886,4.886,0,0,0,1.506,1.675,8.25,8.25,0,0,0,4.726,1.268,8.247,8.247,0,0,0,4.725-1.268,4.9,4.9,0,0,0,1.212-1.2,4.315,4.315,0,0,0,1.737,1.521,7.5,7.5,0,0,0-.672,3.1,5.136,5.136,0,0,0,1.164,3.285,5.515,5.515,0,0,0,3.43,1.8c3.4.541,6.8,1.056,10.2,1.615,2.618.432,5.542.521,7.273-1.352,1.783-1.937,3.52-3.919,5.312-5.848,2.306-2.481,2.323-5.3,2.126-8.141q-.372-5.293-.741-10.588c-.2-2.947-.839-4.3-2.323-5.7a6.236,6.236,0,0,1-2.3-4.7c0-2.886-.634-5.13-1.925-6.66a6.29,6.29,0,0,0-5.364-2.079c-2,.127-3.787.7-5.265.385-1.056-.225-2.092-1.188-3.509-1.873a6.156,6.156,0,0,0-5.9.02Z" transform="translate(-9.01 -105.147)" fill="#9aa1f7" fill-rule="evenodd"/>
  </g>
</svg>
