<svg id="Grupo_23" data-name="Grupo 23" xmlns="http://www.w3.org/2000/svg" xmlns:xlink="http://www.w3.org/1999/xlink" width="36.491" height="62.824" viewBox="0 0 36.491 62.824">
  <defs>
    <clipPath id="clip-path">
      <rect id="Rectángulo_37" data-name="Rectángulo 37" width="36.491" height="62.824" fill="#9aa1f7"/>
    </clipPath>
  </defs>
  <g id="Grupo_22" data-name="Grupo 22" clip-path="url(#clip-path)">
    <path id="Trazado_624" data-name="Trazado 624" d="M75.3,382.016a10.371,10.371,0,0,1-10.346-10.408,10,10,0,0,1,.564-3.323,13.816,13.816,0,0,0,.752-6.27c-.063-.564-.188-1.191-.314-1.818a.639.639,0,1,1,1.254-.251c.126.627.251,1.254.314,1.881a15.516,15.516,0,0,1-.815,6.834,9.3,9.3,0,0,0-.5,2.884,9.019,9.019,0,0,0,2.884,6.646,8.819,8.819,0,0,0,6.834,2.445.659.659,0,1,1,.062,1.317,2.83,2.83,0,0,1-.689.062Z" transform="translate(-57.685 -319.192)" fill="#9aa1f7"/>
    <path id="Trazado_625" data-name="Trazado 625" d="M233.189,247.965a1.738,1.738,0,0,1-.564-.063c-.126,0-.251-.062-.376-.062a.639.639,0,0,1,.251-1.254c.126,0,.188.063.314.063a3.847,3.847,0,0,0,3.009-1,2.708,2.708,0,0,0,.878-2.132v-.062l.126-1.442a.886.886,0,0,1,.126-.376c3.323-4.263,3.95-10.345,4.013-10.91a34.062,34.062,0,0,0-2.007-10.345c-.188-.69-.439-1.5-.69-2.383a5.884,5.884,0,0,0-1.693-3.135,6.649,6.649,0,0,0-2.884-.815.665.665,0,0,1,.188-1.316,6.91,6.91,0,0,1,3.511,1.066,7.178,7.178,0,0,1,2.195,3.825c.251.878.5,1.63.69,2.32a36.274,36.274,0,0,1,2.007,10.722v.062c0,.25-.564,6.771-4.2,11.474l-.062,1.191a3.757,3.757,0,0,1-1.317,3.072,4.848,4.848,0,0,1-3.511,1.5Z" transform="translate(-205.79 -188.903)" fill="#9aa1f7"/>
    <path id="Trazado_626" data-name="Trazado 626" d="M158.115,382.492h-.69a.659.659,0,0,1,.062-1.317,8.9,8.9,0,0,0,6.834-2.445,9.155,9.155,0,0,0,2.884-6.646,8.705,8.705,0,0,0-.5-2.884,15.517,15.517,0,0,1-.815-6.834c.062-.627.188-1.254.314-1.881a.639.639,0,0,1,1.254.251c-.126.627-.251,1.191-.314,1.818a13.919,13.919,0,0,0,.752,6.27,10,10,0,0,1,.564,3.323,10.429,10.429,0,0,1-3.26,7.587,10.565,10.565,0,0,1-7.084,2.759Z" transform="translate(-139.243 -319.668)" fill="#9aa1f7"/>
    <path id="Trazado_627" data-name="Trazado 627" d="M157.985,509.17a.627.627,0,1,1,.627-.627.591.591,0,0,1-.627.627" transform="translate(-139.74 -451.049)" fill="#9aa1f7"/>
    <path id="Trazado_628" data-name="Trazado 628" d="M45.72,303.438a.658.658,0,0,1-.564-.314,16.761,16.761,0,0,1-2.32-6.332c-.063-.251-.063-.5-.126-.69a9.065,9.065,0,0,1,.439-5.142l.627-1.5A11.953,11.953,0,0,1,46.911,285a8.561,8.561,0,0,1,1.317-.94,7.361,7.361,0,0,1,8.025,1,.666.666,0,1,1-.878,1,6.029,6.029,0,0,0-6.583-.815,8.551,8.551,0,0,0-1.066.752,9.993,9.993,0,0,0-2.759,3.95l-.627,1.5a7.309,7.309,0,0,0-.376,4.326,3.153,3.153,0,0,1,.126.752,16.306,16.306,0,0,0,2.195,5.956.635.635,0,0,1-.251.878,2.577,2.577,0,0,1-.315.063Z" transform="translate(-37.757 -251.586)" fill="#9aa1f7"/>
    <path id="Trazado_629" data-name="Trazado 629" d="M168.006,302.947c-.126,0-.251,0-.314-.126a.634.634,0,0,1-.251-.878,16.7,16.7,0,0,0,2.195-5.956,3.159,3.159,0,0,0,.126-.752c.5-2.195-.063-3.637-1.066-6.082a8.878,8.878,0,0,0-3.386-4.138,2.545,2.545,0,0,0-.564-.314,6.15,6.15,0,0,0-6.583.815.666.666,0,0,1-.878-1,7.376,7.376,0,0,1,8.025-1,6.856,6.856,0,0,0,.69.376,11.024,11.024,0,0,1,3.887,4.7c1.066,2.571,1.693,4.326,1.191,6.834a2.7,2.7,0,0,0-.126.752,17.543,17.543,0,0,1-2.32,6.332c-.189.314-.377.439-.628.439Z" transform="translate(-139.478 -251.095)" fill="#9aa1f7"/>
    <path id="Trazado_630" data-name="Trazado 630" d="M95.457,375.912h-.188c-10.533-3.2-17.43-.063-17.493-.063a.659.659,0,1,1-.564-1.191c.314-.126,7.4-3.386,18.433-.063a.637.637,0,0,1,.439.815.611.611,0,0,1-.628.5Z" transform="translate(-68.246 -331.333)" fill="#9aa1f7"/>
    <path id="Trazado_631" data-name="Trazado 631" d="M73.348,223.106a.611.611,0,0,1-.627-.5l-2.257-8.527a.655.655,0,0,1,1.254-.376l2.257,8.527a.719.719,0,0,1-.439.815C73.473,223.044,73.411,223.106,73.348,223.106Z" transform="translate(-62.563 -189.374)" fill="#9aa1f7"/>
    <path id="Trazado_632" data-name="Trazado 632" d="M108.88,67.372a4.152,4.152,0,0,1-2.257-.69L104.8,65.491a6.318,6.318,0,0,1-2.884-4.89v-.188a43.37,43.37,0,0,1,.627-5.58,5.469,5.469,0,0,1,3.2-4.013,3.539,3.539,0,0,1,4.138.94v.062c.251.314.439.627.69.94.314.439.564.815.878,1.192a3.969,3.969,0,0,0,3.449,1.128.648.648,0,0,1,.752.564v.126a33.427,33.427,0,0,1,.5,4.7v.062a6.319,6.319,0,0,1-3.009,5.016l-2.195,1.317a4.39,4.39,0,0,1-2.069.5ZM107.187,51.76a2.511,2.511,0,0,0-.94.188,4.007,4.007,0,0,0-2.383,3.072,31.343,31.343,0,0,0-.627,5.392v.126a4.879,4.879,0,0,0,2.32,3.887l1.818,1.192a2.885,2.885,0,0,0,3.009.062l2.195-1.317a4.729,4.729,0,0,0,2.383-3.95V60.35a29.754,29.754,0,0,0-.376-3.95,5.2,5.2,0,0,1-3.95-1.567,7.388,7.388,0,0,1-1.066-1.379,4.43,4.43,0,0,0-.627-.878,2.436,2.436,0,0,0-1.755-.815Z" transform="translate(-90.509 -44.863)" fill="#9aa1f7"/>
    <path id="Trazado_633" data-name="Trazado 633" d="M60.343,21.256a11.214,11.214,0,0,1-1.379-.126.665.665,0,0,1,.188-1.316,5.745,5.745,0,0,0,5.267-1.693c-3.26-1.066-3.762-4.765-4.2-8.088a19.915,19.915,0,0,0-.94-4.389,7.658,7.658,0,0,0-7.21-4.263,7.658,7.658,0,0,0-7.21,4.263,17.2,17.2,0,0,0-1,4.514c-.439,3.26-.94,6.9-4.2,7.9a5.593,5.593,0,0,0,5.267,1.693.665.665,0,1,1,.188,1.316A7.124,7.124,0,0,1,37.9,18a.569.569,0,0,1,0-.627.975.975,0,0,1,.5-.376c3.2-.376,3.637-3.637,4.138-7.022A23.257,23.257,0,0,1,43.6,5.08,8.932,8.932,0,0,1,52,0a9,9,0,0,1,8.4,5.079,19.26,19.26,0,0,1,1.066,4.7c.5,3.511.94,6.771,4.138,7.148a.623.623,0,0,1,.5.376.732.732,0,0,1,0,.627,6.364,6.364,0,0,1-5.769,3.323Z" transform="translate(-33.571 -0.001)" fill="#9aa1f7"/>
    <path id="Trazado_634" data-name="Trazado 634" d="M9.091,219.6a5.266,5.266,0,0,1-3.511-1.379,4.044,4.044,0,0,1-1.317-3.072L4.2,213.952C.564,209.188.063,202.667,0,202.416v-.063a38.368,38.368,0,0,1,2.007-10.722c.188-.69.439-1.5.69-2.32a6.794,6.794,0,0,1,2.195-3.825A6.912,6.912,0,0,1,8.4,184.421c.878-.126,1.818-.188,2.7-.314a3.812,3.812,0,0,0,3.26-2.821.677.677,0,0,1,1.317.314,4.942,4.942,0,0,1-4.389,3.762c-.94.126-1.818.188-2.7.314a6.189,6.189,0,0,0-2.884.815,5.666,5.666,0,0,0-1.693,3.135c-.251.878-.5,1.63-.69,2.383a38.859,38.859,0,0,0-2.007,10.345c.063.564.69,6.709,4.013,10.91a.891.891,0,0,1,.126.376l.126,1.442v.063a2.708,2.708,0,0,0,.878,2.132,3.85,3.85,0,0,0,3.009,1,.684.684,0,0,0,.314-.063.639.639,0,1,1,.251,1.254c-.126,0-.251.063-.376.063a1.752,1.752,0,0,1-.565.062Z" transform="translate(0 -160.533)" fill="#9aa1f7"/>
    <path id="Trazado_635" data-name="Trazado 635" d="M197.56,195.258h-.126a.635.635,0,0,1-.5-.752l1.693-7.837-1.254-.126a5.019,5.019,0,0,1-4.263-3.762v-.062a.677.677,0,1,1,1.317-.314v.062a3.677,3.677,0,0,0,3.135,2.759l1.944.251a.529.529,0,0,1,.439.25.675.675,0,0,1,.126.5l-1.818,8.527A.757.757,0,0,1,197.56,195.258Z" transform="translate(-171.477 -161.526)" fill="#9aa1f7"/>
  </g>
</svg>
