<svg id="Grupo_25" data-name="Grupo 25" xmlns="http://www.w3.org/2000/svg" xmlns:xlink="http://www.w3.org/1999/xlink" width="56.202" height="49.723" viewBox="0 0 56.202 49.723">
  <defs>
    <clipPath id="clip-path">
      <rect id="Rectángulo_38" data-name="Rectángulo 38" width="56.202" height="49.723" fill="#9aa1f7"/>
    </clipPath>
  </defs>
  <g id="Grupo_24" data-name="Grupo 24" clip-path="url(#clip-path)">
    <path id="Trazado_636" data-name="Trazado 636" d="M56.128,3.98c-.244-1.308-1.44-4.348-7.236-3.943-4.705.32-8.384,6.7-9.834,6.8a7.834,7.834,0,0,1-2.748-.875c-6.06-2.626-9.5-2.691-16.2,0a8.6,8.6,0,0,1-2.955.875C15.7,6.737,11.984.357,7.316.037,1.529-.368.325,2.672.071,3.98c-.376,2,.866,5.514.866,6.587,0,1.816-.263,5.749.828,7.039a.936.936,0,0,0,1.44-1.2c-.537-.687-.386-5.006-.376-5.646C3.346,9.024,4.07,8.675,5.021,8.751a7.723,7.723,0,0,0,3.463.141A.957.957,0,1,0,8.135,7.01c-.565.1-2.371.263-3.152-.4-.226-.188-.085-.537,0-.678a1.883,1.883,0,0,1,2.174-.856c2.277.518,6.3,5.571,8.234,8.008a8.654,8.654,0,0,1,1.355,2.39,21.521,21.521,0,0,0-4.639-1.393,4.958,4.958,0,0,0-1.882-3.171,5.77,5.77,0,0,0-4.583-.819c-3.6,1.11-2.879,6.465.367,7.641,2.3.866,5.176.527,5.966-1.816h0a24.933,24.933,0,0,1,5.543,1.882c.668,2.249,1.11,4.3,1.675,5.759A40.535,40.535,0,0,0,23.164,30.9a10.836,10.836,0,0,0-.706,3.491c0,1.477,1.882,13.174,2.127,14.539a.941.941,0,0,0,.941.791h5.251a.941.941,0,0,0,.941-.791c.15-1.327,2.032-13.061,2.032-14.539a10.928,10.928,0,0,0-.706-3.491,40.509,40.509,0,0,0,3.933-7.246c.546-1.4,1.044-3.642,1.675-5.759a26.741,26.741,0,0,1,5.581-1.882c.809,2.277,3.632,2.654,5.957,1.713,3.209-1.2,4.009-6.587.376-7.679a5.768,5.768,0,0,0-4.583.818A4.977,4.977,0,0,0,44.1,14.049a21.89,21.89,0,0,0-4.62,1.393,8.962,8.962,0,0,1,1.346-2.4c1.938-2.428,5.966-7.528,8.243-8.008,1.694-.4,2.626,1.138,2.155,1.534-.781.668-2.579.508-3.152.4a.958.958,0,1,0-.357,1.882,7.776,7.776,0,0,0,3.472-.141c.941-.075,1.685.263,2.2,2.014,0,.659.15,4.978-.386,5.646h0a.941.941,0,0,0,.716,1.543c1.938,0,1.543-5.561,1.543-7.368,0-1.11,1.252-4.555.865-6.568Zm-45.9,11.34c-.386,1.233-2.306,1.148-3.529.687-1.59-.593-2.315-3.557-.48-4.122a3.867,3.867,0,0,1,2.917.546,2.919,2.919,0,0,1,1.091,2.889Zm36.888-2.889a4.14,4.14,0,0,1,2.183-.649c2.767,0,1.976,3.576.254,4.225-1.233.461-3.152.546-3.529-.687a2.916,2.916,0,0,1,1.073-2.889ZM35.821,7.8a35.926,35.926,0,0,1-15.32,0c6.756-2.673,9.382-2.55,15.33,0ZM24.266,29.143c-4.63-7.077-3.689-9.316-5.815-14.426,4.95,3.623,5.891,7.876,5.815,14.426m7.679,0c-.1-6.587.885-10.821,5.815-14.436-2.193,5.27-1.185,7.34-5.815,14.446Zm16.7-25.907c-2.522.584-5.768,4.282-8.7,7.933-1.016.5-5.571,2.889-7.7,6.738-2.343,4.225-2.268,8.7-2.174,12.29v1.336a.936.936,0,0,1-.282.2.954.954,0,0,0,.31,1.882,3.114,3.114,0,0,0,1.5-.941c.471,1.76.518,1.619-1.694,15.225H26.279c-2.334-14.323-2.108-13.7-1.694-15.225,2.522,2.532,3.369-.621,1.882-.875a1.893,1.893,0,0,1-.329-.226c0-4.272.423-8.978-2.145-13.607-2.126-3.849-6.691-6.239-7.7-6.738-2.926-3.651-6.173-7.349-8.7-7.933C4.532,2.588,2.4,5.336,3.186,7.246h0a3.679,3.679,0,0,0-.819.621,11.29,11.29,0,0,1-.4-3.482C2.349,2.061,5.021,1.731,7.186,1.91s4.329,2.324,6.023,4.065c1.355,1.393,2.437,2.494,3.576,2.7,5.646,2.4,16.806,2.475,22.641,0,2.663-.48,5.646-6.493,9.6-6.766,2.164-.141,4.837.15,5.26,2.418h0a11.015,11.015,0,0,1-.414,3.482,3.484,3.484,0,0,0-.819-.621,2.5,2.5,0,0,0-.132-2.108,3.764,3.764,0,0,0-4.272-1.844Z" transform="translate(0 0)" fill="#9aa1f7"/>
  </g>
</svg>
