<?xml version="1.0" encoding="UTF-8"?><svg id="Capa_1" xmlns="http://www.w3.org/2000/svg" viewBox="0 0 36 45"><path d="M18.42,2c-3.16,0-5.72,2.57-5.72,5.72s2.57,5.73,5.72,5.73,5.73-2.57,5.73-5.73-2.57-5.72-5.73-5.72Zm0,8.55c-1.56,0-2.83-1.27-2.83-2.83s1.27-2.83,2.83-2.83,2.83,1.27,2.83,2.83-1.27,2.83-2.83,2.83Z"/><path d="M11.03,16.31c.47-.64,1.35-.8,2.04-.41,1.64,.92,3.48,1.4,5.39,1.4s3.68-.46,5.3-1.35c.7-.38,1.57-.22,2.04,.43l.23,.32c.54,.74,.34,1.81-.47,2.26-2.16,1.21-4.59,1.85-7.11,1.85s-5-.65-7.17-1.89c-.82-.47-1.06-1.54-.5-2.29l.24-.32Z"/><path d="M7.08,21.75c.48-.65,1.38-.82,2.07-.39,2.79,1.73,5.98,2.64,9.31,2.64s6.45-.89,9.22-2.58c.69-.42,1.59-.25,2.07,.41l.23,.32c.53,.73,.33,1.78-.44,2.25-3.33,2.04-7.13,3.12-11.08,3.12s-7.85-1.1-11.21-3.19c-.77-.48-.95-1.52-.42-2.24l.23-.32Z"/><path d="M22.36,42.16h-.43c-.85,0-1.54-.69-1.54-1.54v-4.97c0-.86-.71-1.55-1.57-1.54-.12,0-.24,0-.36,0-.15,0-.3,0-.45,0-.86-.01-1.57,.67-1.57,1.54v4.97c0,.85-.69,1.54-1.54,1.54h-.43c-.85,0-1.54-.69-1.54-1.54v-5.85c0-.7-.49-1.3-1.17-1.46-2.98-.73-5.81-1.96-8.42-3.65-.75-.48-.94-1.5-.41-2.22l.25-.34c.48-.65,1.39-.82,2.07-.38,3.93,2.55,8.47,3.89,13.21,3.89s9.21-1.32,13.12-3.83c.68-.44,1.59-.26,2.06,.39l.25,.35c.52,.72,.33,1.73-.42,2.21-2.6,1.67-5.44,2.88-8.41,3.61-.7,.17-1.17,.81-1.17,1.52v5.76c0,.85-.69,1.54-1.54,1.54Z"/></svg>