<svg xmlns="http://www.w3.org/2000/svg" xmlns:xlink="http://www.w3.org/1999/xlink" width="48" height="48" viewBox="0 0 48 48">
  <defs>
    <clipPath id="clip-path">
      <rect id="Rectángulo_58" data-name="Rectángulo 58" width="16" height="16" transform="translate(0 0)" fill="none"/>
    </clipPath>
  </defs>
  <g id="Grupo_53" data-name="Grupo 53" transform="translate(-135 -10158)">
    <circle id="Oval" cx="24" cy="24" r="24" transform="translate(135 10158)" fill="#f03d93"/>
    <g id="Grupo_52" data-name="Grupo 52" transform="translate(151 10174)">
      <g id="Grupo_51" data-name="Grupo 51" transform="translate(0 0)" clip-path="url(#clip-path)">
        <path id="Trazado_690" data-name="Trazado 690" d="M8,1.441c2.136,0,2.389.008,3.233.047a4.429,4.429,0,0,1,1.486.275,2.479,2.479,0,0,1,.92.6,2.478,2.478,0,0,1,.6.92,4.426,4.426,0,0,1,.276,1.486c.038.844.047,1.1.047,3.233s-.008,2.389-.047,3.233a4.426,4.426,0,0,1-.276,1.486,2.649,2.649,0,0,1-1.518,1.518,4.427,4.427,0,0,1-1.486.276c-.843.038-1.1.047-3.233.047s-2.389-.008-3.233-.047a4.427,4.427,0,0,1-1.486-.276,2.479,2.479,0,0,1-.92-.6,2.479,2.479,0,0,1-.6-.92,4.427,4.427,0,0,1-.275-1.486c-.039-.844-.047-1.1-.047-3.233s.008-2.389.047-3.233a4.426,4.426,0,0,1,.275-1.486,2.479,2.479,0,0,1,.6-.92,2.479,2.479,0,0,1,.92-.6,4.429,4.429,0,0,1,1.485-.275c.844-.039,1.1-.047,3.233-.047M8,0C5.827,0,5.555.009,4.7.048A5.872,5.872,0,0,0,2.76.42a3.922,3.922,0,0,0-1.417.923A3.922,3.922,0,0,0,.42,2.76,5.873,5.873,0,0,0,.048,4.7C.009,5.555,0,5.827,0,8s.009,2.445.048,3.3A5.873,5.873,0,0,0,.42,13.24a3.921,3.921,0,0,0,.923,1.417,3.921,3.921,0,0,0,1.417.923,5.873,5.873,0,0,0,1.942.372C5.555,15.991,5.827,16,8,16s2.445-.009,3.3-.048a5.873,5.873,0,0,0,1.942-.372,4.091,4.091,0,0,0,2.34-2.34,5.873,5.873,0,0,0,.372-1.942c.039-.853.048-1.126.048-3.3s-.009-2.445-.048-3.3A5.873,5.873,0,0,0,15.58,2.76a3.922,3.922,0,0,0-.923-1.417A3.922,3.922,0,0,0,13.24.42,5.872,5.872,0,0,0,11.3.048C10.445.009,10.173,0,8,0M8,3.892A4.108,4.108,0,1,0,12.108,8,4.108,4.108,0,0,0,8,3.892m0,6.775A2.667,2.667,0,1,1,10.667,8,2.667,2.667,0,0,1,8,10.667M13.23,3.73a.96.96,0,1,1-.96-.96.96.96,0,0,1,.96.96" transform="translate(0 0)" fill="#fff"/>
      </g>
    </g>
  </g>
</svg>
