<svg xmlns="http://www.w3.org/2000/svg" xmlns:xlink="http://www.w3.org/1999/xlink" width="48" height="48" viewBox="0 0 48 48">
  <defs>
    <clipPath id="clip-path">
      <rect id="Rect치ngulo_61" data-name="Rect치ngulo 61" width="16.248" height="16.248" fill="#fff"/>
    </clipPath>
  </defs>
  <g id="Grupo_82" data-name="Grupo 82" transform="translate(-303 -6286)">
    <circle id="Oval" cx="24" cy="24" r="24" transform="translate(303 6286)" fill="#fce864"/>
    <g id="Grupo_81" data-name="Grupo 81" transform="translate(318.876 6300.735)">
      <g id="Grupo_80" data-name="Grupo 80" transform="translate(0 0.001)" clip-path="url(#clip-path)">
        <path id="Trazado_696" data-name="Trazado 696" d="M3.611,1.805A1.7,1.7,0,0,1,1.806,3.61,1.736,1.736,0,0,1,0,1.9,1.83,1.83,0,0,1,1.806,0,1.755,1.755,0,0,1,3.611,1.805" transform="translate(0 0)" fill="#fff"/>
        <rect id="Rect치ngulo_60" data-name="Rect치ngulo 60" width="3.611" height="11.735" transform="translate(0 4.513)" fill="#fff"/>
        <path id="Trazado_697" data-name="Trazado 697" d="M18.148,9.868a3.953,3.953,0,0,0-3.43,1.805h-.09l-.181-1.535H11.2c0,.993.09,2.167.09,3.52v7.763H14.9V15.013a2.78,2.78,0,0,1,.09-.9A1.941,1.941,0,0,1,16.7,12.666c1.263,0,1.805,1.083,1.805,2.528v6.228H22.12V14.743c0-3.34-1.715-4.875-3.972-4.875" transform="translate(-5.871 -5.174)" fill="#fff"/>
      </g>
    </g>
  </g>
</svg>
